<?xml version="1.0" encoding="UTF-8"?>
<svg width="104px" height="147px" viewBox="0 0 104 147" version="1.1" xmlns="http://www.w3.org/2000/svg" xmlns:xlink="http://www.w3.org/1999/xlink">
    <title>5B0B4FB1-C536-4293-ADF5-C8C21FFFAEBF</title>
    <g id="---|---Design-V1.0" stroke="none" stroke-width="1" fill="none" fill-rule="evenodd">
        <g id="sh-V1.0-|-1920-Copy-9" transform="translate(-1087.000000, -3654.000000)" fill="#FFFFFF" fill-rule="nonzero">
            <g id="2-copy" transform="translate(1089.000000, 3654.000000)">
                <path d="M97.9108059,147 C99.5953127,147 101.069256,145.755946 101.069256,144.097207 L101.069256,112.581163 C101.069256,110.922424 99.5953127,109.67837 97.9108059,109.67837 L62.1150355,109.67837 C85.4875679,86.0413377 96.2262991,61.9896206 96.2262991,41.4627241 C96.2262991,15.9596103 78.7495406,0.823615926 49.2706709,0.823615926 C34.531236,0.823615926 17.4756042,6.8365452 3.1572961,16.9963222 C1.47278926,18.2403766 0.841099191,19.0697461 1.47278926,20.5211429 L12.6326471,45.6095719 C13.0537738,47.0609686 14.7382806,48.0976806 16.2122241,47.268311 C24.6347583,41.4627241 33.6889826,38.1452459 40.2164466,38.1452459 C46.7439106,38.1452459 50.534051,41.0480393 50.534051,46.2315991 C50.534051,59.2941696 33.4784192,83.1385443 1.05166255,116.105984 C-0.211717585,117.557381 -1.05397101,119.630805 -1.05397101,121.082201 L-1.05397101,144.097207 C-1.05397101,145.755946 0.209409125,147 2.10447932,147 L97.9108059,147 Z" id="Path"></path>
            </g>
        </g>
    </g>
</svg>