<?xml version="1.0" encoding="UTF-8"?>
<svg width="106px" height="147px" viewBox="0 0 106 147" version="1.1" xmlns="http://www.w3.org/2000/svg" xmlns:xlink="http://www.w3.org/1999/xlink">
    <title>BCA79373-08C9-41BB-A4C5-F5DA13ADBB5D</title>
    <g id="---|---Design-V1.0" stroke="none" stroke-width="1" fill="none" fill-rule="evenodd">
        <g id="sh-V1.0-|-1920-Copy-9" transform="translate(-428.000000, -4376.000000)" fill="#2FAC73" fill-rule="nonzero">
            <g id="3-copy" transform="translate(428.000000, 4376.000000)">
                <path d="M16.6713999,41.2990264 C17.2903048,42.3212796 18.9407177,43.3435327 20.384829,42.9346314 C31.5251163,39.6634214 41.0149907,37.6189152 45.9662295,37.6189152 C55.2498023,37.6189152 60.2010411,41.2990264 60.2010411,45.5924896 C60.2010411,51.1126565 54.2182942,54.7927677 45.3473246,54.7927677 L21.2100355,54.7927677 C19.3533209,54.7927677 18.3218128,56.2239221 18.5281145,57.4506259 L21.4163371,86.0737135 C21.6226387,87.3004172 23.06675,88.7315716 24.9234646,88.7315716 L45.3473246,88.7315716 C55.6624055,88.7315716 62.4703588,92.8205841 62.4703588,98.7496523 C62.4703588,103.860918 56.9002152,108.154381 45.9662295,108.154381 C37.5078632,108.154381 25.748671,104.67872 13.9894789,98.9541029 C12.9579708,98.5452017 10.688653,99.1585535 10.2760498,100.589708 L0.167270562,129.008345 C-0.451634289,130.439499 0.786175412,131.870654 1.61138188,132.279555 C15.4335902,141.479833 34.6196406,147 53.1867861,147 C86.4013464,147 106,130.439499 106,102.634214 C106,88.527121 98.985745,75.8511822 87.2265529,68.286509 C95.8912208,62.7663421 101.048761,52.7482615 101.048761,41.5034771 C101.048761,15.3337969 83.5131238,0 53.8056909,0 C38.7456729,0 21.8289403,4.29346314 8.41933524,11.449235 C6.56262068,12.4714882 6.15001745,13.2892907 6.7689223,14.9248957 L16.6713999,41.2990264 Z" id="Path"></path>
            </g>
        </g>
    </g>
</svg>