<?xml version="1.0" encoding="UTF-8"?>
<svg width="52px" height="40px" viewBox="0 0 52 40" version="1.1" xmlns="http://www.w3.org/2000/svg" xmlns:xlink="http://www.w3.org/1999/xlink">
    <title>5595CDCA-BF60-42DD-8447-872212B7E1D5</title>
    <g id="---|---Design-V1.0" stroke="none" stroke-width="1" fill="none" fill-rule="evenodd">
        <g id="sh-V1.0-|-1920-Copy-14" transform="translate(-1748.000000, -1880.000000)" fill="#2FAC73">
            <g id="Group-5" transform="translate(0.000000, 1772.000000)">
                <path d="M1798.68402,131.269395 C1796.30194,136.164777 1792.06793,140.10361 1786.90884,141.725642 C1774.97498,145.758643 1762.10805,136.40673 1763.30618,123.557085 L1763.29687,123.557085 L1767.56191,123.557085 C1768.1151,123.557085 1768.56368,123.101565 1768.56368,122.53881 L1768.56368,114.363771 C1768.56368,113.801466 1768.1151,113.345495 1767.56191,113.345495 L1763.30485,113.345495 L1763.30485,109.018726 C1763.30485,108.455971 1762.85627,108 1762.30308,108 L1754.26059,108 C1753.7074,108 1753.25883,108.455971 1753.25883,109.018726 L1753.25883,113.345495 L1749.00177,113.345495 C1748.44858,113.345495 1748,113.801466 1748,114.363771 L1748,122.53881 C1748,123.101565 1748.44858,123.557085 1749.00177,123.557085 L1753.2668,123.557085 C1753.26326,123.680089 1753.2637,123.690452 1753.26636,123.863019 C1753.26547,123.991429 1753.27168,124.107675 1753.28188,124.225272 C1753.56202,127.477446 1754.4277,130.65843 1755.81643,133.533481 C1763.20379,149.119853 1784.03076,152.913154 1795.41277,139.726488 C1797.41186,137.398872 1798.90343,134.654485 1799.80502,131.734377 C1800.02798,131.012573 1799.0138,130.591296 1798.68402,131.269395" id="logo-plus"></path>
            </g>
        </g>
    </g>
</svg>