<?xml version="1.0" encoding="UTF-8"?>
<svg width="114px" height="147px" viewBox="0 0 114 147" version="1.1" xmlns="http://www.w3.org/2000/svg" xmlns:xlink="http://www.w3.org/1999/xlink">
    <title>8ED6864C-098A-4348-92AF-421BE4AE2F0D</title>
    <g id="---|---Design-V1.0" stroke="none" stroke-width="1" fill="none" fill-rule="evenodd">
        <g id="sh-V1.0-|-1920-Copy-9" transform="translate(-1090.000000, -4576.000000)" fill="#2FAC73" fill-rule="nonzero">
            <g id="4-copy" transform="translate(1090.000000, 4576.000000)">
                <path d="M104.446927,85.0043478 L104.446927,2.76956522 C104.446927,1.27826087 103.173184,0 101.47486,0 L49.6759777,0 C48.4022346,0 47.1284916,0.852173913 46.4916201,2.13043478 L1.48603352,85.8565217 C0.424581006,87.773913 0,89.2652174 0,91.3956522 L0,116.321739 C0,119.304348 1.69832402,121.434783 4.67039106,121.434783 L60.7150838,121.434783 L60.7150838,143.804348 C60.7150838,145.508696 61.9888268,147 63.8994413,147 L101.47486,147 C103.173184,147 104.446927,145.508696 104.446927,143.804348 L104.446927,121.434783 L110.815642,121.434783 C112.513966,121.434783 114,120.156522 114,118.23913 L114,87.9869565 C114,86.2826087 112.513966,85.0043478 110.815642,85.0043478 L104.446927,85.0043478 Z M60.7150838,43.2478261 L60.7150838,85.0043478 L41.8212291,85.0043478 L60.7150838,43.2478261 Z" id="Shape"></path>
            </g>
        </g>
    </g>
</svg>