<?xml version="1.0" encoding="UTF-8"?>
<svg width="19px" height="19px" viewBox="0 0 19 19" version="1.1" xmlns="http://www.w3.org/2000/svg" xmlns:xlink="http://www.w3.org/1999/xlink">
    <title>99927C80-0ED9-4863-95BE-BF190D29F1F5</title>
    <g id="---|---Design-V1.0" stroke="none" stroke-width="1" fill="none" fill-rule="evenodd">
        <g id="sh-V1.0-|-1920-Copy-9" transform="translate(-1751.000000, -45.000000)" fill="#808080" fill-rule="nonzero">
            <g id="Group" transform="translate(-520.000000, 0.000000)">
                <g id="Group-2" transform="translate(1980.500000, 23.000000)">
                    <g id="Search" transform="translate(290.999993, 22.250000)">
                        <path d="M17.7222728,16.5585938 L13.0113353,11.8476562 C14.0308666,10.5996094 14.5933666,9.02812457 14.5933666,7.3125 C14.5933666,3.27304709 11.3192648,0 7.28086656,0 C3.2424683,0 0,3.27410173 0,7.3125 C0,11.3508983 3.27375734,14.625 7.2808671,14.625 C8.99614084,14.625 10.5697349,14.0305077 11.8160233,13.0415622 L16.5269608,17.7524997 C16.7238361,17.9191411 16.9418042,18 17.1562575,18 C17.3707108,18 17.5879762,17.917594 17.7528591,17.7528162 C18.0808665,17.4234377 18.0808665,16.8890623 17.7222733,16.5585938 L17.7222728,16.5585938 Z M1.68750751,7.3125 C1.68750751,4.21101558 4.21102309,1.6875 7.31250751,1.6875 C10.4139919,1.6875 12.9375075,4.21101558 12.9375075,7.3125 C12.9375075,10.4139844 10.4139919,12.9375 7.31250751,12.9375 C4.21102309,12.9375 1.68750751,10.4132817 1.68750751,7.3125 Z" id="Shape"></path>
                    </g>
                </g>
            </g>
        </g>
    </g>
</svg>